<?xml version="1.0" encoding="utf-8"?>
<!-- Generator: Adobe Illustrator 26.0.3, SVG Export Plug-In . SVG Version: 6.00 Build 0)  -->
<svg version="1.1" id="Layer_1" xmlns="http://www.w3.org/2000/svg" xmlns:xlink="http://www.w3.org/1999/xlink" x="0px" y="0px"
	 viewBox="0 0 361.15 361.15" style="enable-background:new 0 0 361.15 361.15;" xml:space="preserve">
<style type="text/css">
	.st0{fill:#FFFFFF;}
	.st1{fill:none;stroke:#1E85FC;stroke-width:20;stroke-miterlimit:10;}
	.st2{fill:none;stroke:#B448FD;stroke-width:20;stroke-miterlimit:10;}
</style>
<path class="st0" d="M55.49,0h250.18c30.64,0,55.49,24.84,55.49,55.49v250.18c0,30.64-24.84,55.49-55.49,55.49H55.49
	C24.84,361.15,0,336.31,0,305.66V55.49C0,24.84,24.84,0,55.49,0z"/>
<g>
	<g>
		<path class="st1" d="M264.2,76.44l-89.4-35.81c-11.46-4.59-24.53-2.26-33.7,6l-70.93,63.94c-8.28,7.46-12.13,18.67-10.2,29.64
			l17.15,97.42C80.22,255.24,97,267,114.6,263.9l160.31-28.21c17.6-3.1,29.36-19.88,26.26-37.48l-17.13-97.33
			C282.1,89.85,274.6,80.61,264.2,76.44z"/>
		<path class="st2" d="M268.02,219.34c9.3-49.09-22.95-96.43-72.04-105.73s-96.43,22.95-105.73,72.04s42.73,132.49,66.13,136.92
			C181.85,327.39,258.71,268.43,268.02,219.34z"/>
	</g>
</g>
</svg>
